<svg xmlns="http://www.w3.org/2000/svg" viewBox="0 0 256 256" role="img" aria-label="Guide Mondial 2026">
  <defs>
    <linearGradient id="g" x1="32" y1="32" x2="224" y2="224" gradientUnits="userSpaceOnUse">
      <stop offset="0" stop-color="#00c8ff"/>
      <stop offset=".35" stop-color="#ffd166"/>
      <stop offset=".62" stop-color="#ef3340"/>
      <stop offset=".8" stop-color="#d633ff"/>
      <stop offset="1" stop-color="#1589ff"/>
    </linearGradient>
    <radialGradient id="shine" cx="35%" cy="25%" r="65%">
      <stop offset="0" stop-color="#fff" stop-opacity=".85"/>
      <stop offset=".22" stop-color="#fff" stop-opacity=".1"/>
      <stop offset="1" stop-color="#000" stop-opacity="0"/>
    </radialGradient>
    <filter id="shadow" x="-20%" y="-20%" width="140%" height="140%"><feDropShadow dx="0" dy="16" stdDeviation="14" flood-color="#000" flood-opacity=".55"/></filter>
  </defs>
  <rect width="256" height="256" rx="58" fill="#061426"/>
  <circle cx="128" cy="116" r="84" fill="url(#g)" filter="url(#shadow)"/>
  <circle cx="128" cy="116" r="84" fill="url(#shine)"/>
  <path d="M128 62l32 23-12 38h-40L96 85z" fill="#071426" opacity=".82"/>
  <path d="M66 106l31-21 11 38-31 24zM190 106l-31-21-11 38 31 24zM92 181l16-58h40l16 58-36 17z" fill="#071426" opacity=".58"/>
  <path d="M78 63c28 18 65 19 101 0M48 126c45 18 100 18 160 0M72 180c34-18 77-19 112 0" fill="none" stroke="#fff" stroke-width="5" stroke-opacity=".38" stroke-linecap="round"/>
  <text x="128" y="218" text-anchor="middle" font-family="Arial, Helvetica, sans-serif" font-weight="900" font-size="34" fill="#fff">2026</text>
</svg>
